HIERARCHY
ROOT SpineBase
{
  OFFSET 0.000000 0.000000 0.000000
  CHANNELS 6 Xposition Yposition Zposition Zrotation Xrotation Yrotation
  JOINT SpineMid
  {
    OFFSET -0.000000 33.727877 0.000000
    CHANNELS 3 Zrotation Xrotation Yrotation
    JOINT SpineShoulder
    {
      OFFSET -0.327688 25.076001 -0.950801
      CHANNELS 3 Zrotation Xrotation Yrotation
      JOINT Neck
      {
        OFFSET -0.224895 8.313265 -0.672694
        CHANNELS 3 Zrotation Xrotation Yrotation
        JOINT Head
        {
          OFFSET -1.122924 10.919145 4.376311
          CHANNELS 3 Zrotation Xrotation Yrotation
          End Site
          {
            OFFSET 0 0 0
          }
        }
      }
      JOINT ShoulderLeft
      {
        OFFSET -13.429554 -8.037113 -8.098232
        CHANNELS 3 Zrotation Xrotation Yrotation
        JOINT ElbowLeft
        {
          OFFSET -5.276326 -28.626965 0.057665
          CHANNELS 3 Zrotation Xrotation Yrotation
          JOINT WristLeft
          {
            OFFSET -1.554958 -20.935444 7.350432
            CHANNELS 3 Zrotation Xrotation Yrotation
            JOINT HandLeft
            {
              OFFSET 1.908563 -2.018225 0.564143
              CHANNELS 3 Zrotation Xrotation Yrotation
              JOINT HandTipLeft
              {
                OFFSET 1.046888 -5.386441 -0.788905
                CHANNELS 3 Zrotation Xrotation Yrotation
                End Site
                {
                  OFFSET 0 0 0
                }
              }
              JOINT ThumbLeft
              {
                OFFSET -1.916268 -1.336070 -2.907555
                CHANNELS 3 Zrotation Xrotation Yrotation
                End Site
                {
                  OFFSET 0 0 0
                }
              }
            }
          }
        }
      }
      JOINT ShoulderRight
      {
        OFFSET 10.052741 -4.238501 -6.598253
        CHANNELS 3 Zrotation Xrotation Yrotation
        JOINT ElbowRight
        {
          OFFSET 5.849812 -30.233636 -1.401006
          CHANNELS 3 Zrotation Xrotation Yrotation
          JOINT WristRight
          {
            OFFSET 1.490420 -22.529228 -2.106343
            CHANNELS 3 Zrotation Xrotation Yrotation
            JOINT HandRight
            {
              OFFSET -2.599130 -3.391291 3.504478
              CHANNELS 3 Zrotation Xrotation Yrotation
              JOINT HandTipRight
              {
                OFFSET 1.093887 -1.778298 -0.021648
                CHANNELS 3 Zrotation Xrotation Yrotation
                End Site
                {
                  OFFSET 0 0 0
                }
              }
              JOINT ThumbRight
              {
                OFFSET 0.804749 -0.814534 -1.189432
                CHANNELS 3 Zrotation Xrotation Yrotation
                End Site
                {
                  OFFSET 0 0 0
                }
              }
            }
          }
        }
      }
    }
  }
  JOINT HipLeft
  {
    OFFSET -7.483377 1.403704 -4.479893
    CHANNELS 3 Zrotation Xrotation Yrotation
    JOINT KneeLeft
    {
      OFFSET 2.775998 -29.108036 -0.464079
      CHANNELS 3 Zrotation Xrotation Yrotation
      JOINT AnkleLeft
      {
        OFFSET -0.571706 -36.387496 -2.514716
        CHANNELS 3 Zrotation Xrotation Yrotation
        JOINT FootLeft
        {
          OFFSET -7.063805 -6.755850 -3.296580
          CHANNELS 3 Zrotation Xrotation Yrotation
          End Site
          {
            OFFSET 0 0 0
          }
        }
      }
    }
  }
  JOINT HipRight
  {
    OFFSET 5.356472 1.883936 -2.390478
    CHANNELS 3 Zrotation Xrotation Yrotation
    JOINT KneeRight
    {
      OFFSET 4.025542 -30.884398 1.491037
      CHANNELS 3 Zrotation Xrotation Yrotation
      JOINT AnkleRight
      {
        OFFSET 1.634753 -34.459597 1.969463
        CHANNELS 3 Zrotation Xrotation Yrotation
        JOINT FootRight
        {
          OFFSET -12.018937 -2.156721 -7.659230
          CHANNELS 3 Zrotation Xrotation Yrotation
          End Site
          {
            OFFSET 0 0 0
          }
        }
      }
    }
  }
}
MOTION
Frames: 12
Frame Time: 0.033333
71.939981 71.245409 228.917618 0.025333 1.193595 -14.607603 -0.212581 0.118194 14.617778 0.043439 0.051407 0.018061 1.350036 -2.935856 -0.638623 0.000000 0.000000 0.000000 0.525361 2.208708 -0.698625 -0.619389 -5.092542 0.654375 -13.057250 6.335932 2.009332 16.997093 -9.697128 -1.462816 0.000000 0.000000 0.000000 0.000000 0.000000 0.000000 5.673583 -0.710754 -0.046546 -8.103220 -2.667663 0.120564 6.903466 14.324802 -6.775978 -23.321482 -27.287544 -10.681311 0.000000 0.000000 0.000000 0.000000 0.000000 0.000000 1.025185 -3.902316 14.371627 -0.195703 1.786772 0.306109 28.402056 28.845623 -55.092334 0.000000 0.000000 0.000000 0.276544 -1.161398 14.610142 -0.000000 0.000000 0.000000 5.530762 -3.633438 1.251818 0.000000 0.000000 0.000000
71.936888 71.232040 228.837734 0.025555 1.270836 -14.943939 -0.208899 0.046334 14.953282 0.037676 0.015228 0.016035 1.802430 -2.253671 -0.734619 0.000000 0.000000 0.000000 0.679804 2.061176 -0.663840 -0.783435 -5.508723 0.648786 -15.388300 7.823003 2.753173 26.077413 -12.881789 -1.649442 0.000000 0.000000 0.000000 0.000000 0.000000 0.000000 6.900054 -1.244373 -0.155070 -9.771871 -1.928104 0.386319 7.477706 14.946143 -7.590618 -23.877952 -29.192384 -11.359716 0.000000 0.000000 0.000000 0.000000 0.000000 0.000000 1.139100 -4.018827 14.706591 -0.327528 1.851550 0.323086 31.562336 28.176851 -58.398404 0.000000 0.000000 0.000000 0.303070 -1.234440 14.946920 -0.000000 0.000000 0.000000 6.556578 -4.148691 0.104281 0.000000 0.000000 0.000000
71.910515 71.159585 228.777935 0.000618 1.350058 -15.151182 -0.186060 0.026643 15.161281 0.054010 0.016145 0.018044 2.146286 -1.801076 -0.820127 0.000000 0.000000 0.000000 0.766329 1.609280 -0.590568 -0.883723 -5.317214 0.592642 -15.350570 8.408717 3.292856 27.995430 -15.329549 -2.033463 0.000000 0.000000 0.000000 0.000000 0.000000 0.000000 7.639742 -1.550623 -0.198736 -10.801741 -1.380575 0.548194 7.647705 14.240108 -7.325809 -27.348829 -27.632433 -11.940000 0.000000 0.000000 0.000000 0.000000 0.000000 0.000000 1.860588 -4.048852 14.923562 -1.645345 1.887535 0.440705 32.087517 29.685071 -59.717379 0.000000 0.000000 0.000000 0.352324 -1.303283 15.155182 -0.000000 0.000000 0.000000 5.730584 -3.521963 -0.912773 0.000000 0.000000 0.000000
71.857177 71.009367 228.742145 -0.058776 1.401657 -15.200077 -0.152370 0.036114 15.211055 0.078204 0.024907 0.020270 2.507465 -1.389367 -0.913091 0.000000 0.000000 0.000000 0.872303 0.996895 -0.485903 -1.063668 -4.736074 0.466685 -13.923042 9.562292 5.050445 25.529787 -16.244940 -3.300690 0.000000 0.000000 0.000000 0.000000 0.000000 0.000000 8.061019 -1.774174 -0.220138 -11.298574 -0.836252 0.662486 6.805399 12.194743 -6.560940 -25.590921 -24.697427 -10.171609 0.000000 0.000000 0.000000 0.000000 0.000000 0.000000 2.157210 -3.935464 14.987322 -2.113967 1.713219 0.466002 24.005733 28.265619 -47.973519 0.000000 0.000000 0.000000 0.424303 -1.337197 15.205747 -0.000000 0.000000 0.000000 3.819687 -2.116489 -2.275149 0.000000 0.000000 0.000000
71.787955 70.866514 228.733764 -0.145766 1.431766 -15.363224 -0.111375 0.063190 15.375024 0.104136 0.035512 0.021966 2.915723 -1.103178 -1.029761 0.000000 0.000000 0.000000 0.880174 0.734093 -0.445872 -1.058059 -4.535243 0.433123 -13.595819 10.452535 6.209684 23.605415 -15.484308 -3.980690 0.000000 0.000000 0.000000 0.000000 0.000000 0.000000 8.572663 -1.985610 -0.238907 -11.846481 -0.424582 0.765714 6.771212 10.326852 -5.094548 -25.673843 -22.743252 -10.849242 0.000000 0.000000 0.000000 0.000000 0.000000 0.000000 2.306846 -3.744292 15.167168 -2.218437 1.458981 0.450209 18.915356 26.845300 -40.826450 0.000000 0.000000 0.000000 0.519994 -1.341958 15.371135 -0.000000 0.000000 0.000000 3.513480 -1.828408 -2.893151 0.000000 0.000000 0.000000
71.696972 70.743315 228.725903 -0.241447 1.451742 -15.366552 -0.067004 0.099041 15.379271 0.124799 0.041741 0.022879 3.227376 -0.994336 -1.122097 0.000000 0.000000 0.000000 0.845717 0.520977 -0.413596 -1.001010 -4.362651 0.406672 -13.034240 11.022113 7.002861 20.063550 -9.667684 -4.004906 0.000000 0.000000 0.000000 0.000000 0.000000 0.000000 6.368080 0.872115 0.200535 -8.546796 -5.578282 -0.478836 4.755394 5.217080 0.718060 -19.914747 -17.328760 -14.655893 0.000000 0.000000 0.000000 0.000000 0.000000 0.000000 2.439121 -3.491604 15.190499 -2.205635 1.178640 0.414662 15.900359 25.719624 -36.650304 0.000000 0.000000 0.000000 0.617652 -1.335819 15.376811 -0.000000 0.000000 0.000000 2.072134 -0.977571 -2.179491 0.000000 0.000000 0.000000
71.623543 70.601603 228.739728 -0.302521 1.457953 -15.158515 -0.045902 0.129845 15.171639 0.135604 0.053489 0.023284 3.500781 -0.673945 -1.184851 0.000000 0.000000 0.000000 0.678840 0.724926 -0.460704 -0.811893 -4.625274 0.452533 -13.839989 11.394164 7.357658 19.207000 -10.343420 -4.135244 0.000000 0.000000 0.000000 0.000000 0.000000 0.000000 7.197421 -0.039782 0.061024 -9.608208 -3.884812 -0.117461 5.309626 5.481269 0.031688 -18.856075 -18.769661 -14.221477 0.000000 0.000000 0.000000 0.000000 0.000000 0.000000 2.149626 -3.189608 15.005325 -1.499301 0.752416 0.316389 14.897046 25.566886 -35.877566 0.000000 0.000000 0.000000 0.673384 -1.328067 15.170169 -0.000000 0.000000 0.000000 2.979686 -1.633404 -1.788102 0.000000 0.000000 0.000000
71.545450 70.533100 228.736855 -0.345830 1.476717 -14.953993 -0.029760 0.140862 14.967378 0.140131 0.048306 0.022867 3.661058 -0.291411 -1.204150 0.000000 0.000000 0.000000 0.466225 0.983176 -0.513296 -0.580654 -4.921874 0.504666 -14.848647 11.913054 7.891797 18.243189 -11.417081 -4.411597 0.000000 0.000000 0.000000 0.000000 0.000000 0.000000 10.753841 -4.174814 -0.453425 -14.092809 3.019433 1.725840 8.151123 12.394588 -7.270269 -20.182093 -27.864353 -8.932348 0.000000 0.000000 0.000000 0.000000 0.000000 0.000000 1.805033 -2.982394 14.819519 -0.717397 0.361118 0.230228 16.173482 26.575813 -38.553870 0.000000 0.000000 0.000000 0.715337 -1.337405 14.966799 -0.000000 0.000000 0.000000 3.639269 -2.240904 -0.488030 0.000000 0.000000 0.000000
71.472935 70.559449 228.725646 -0.393372 1.502996 -14.999456 -0.001692 0.136566 15.013257 0.141816 0.040004 0.022100 3.818247 0.154581 -1.220385 0.000000 0.000000 0.000000 0.258218 1.388362 -0.589293 -0.352308 -5.353361 0.581208 -15.828578 11.604513 7.359899 16.162530 -12.633830 -4.270787 0.000000 0.000000 0.000000 0.000000 0.000000 0.000000 17.733602 -12.223127 -0.722592 -24.734185 14.649045 6.772596 15.666689 23.872587 -22.920101 -21.895615 -45.026098 0.060605 0.000000 0.000000 0.000000 0.000000 0.000000 0.000000 1.298580 -2.860070 14.879011 0.374329 -0.278028 0.145475 20.487472 28.352683 -45.303051 0.000000 0.000000 0.000000 0.769139 -1.349903 15.013677 -0.000000 0.000000 0.000000 4.460965 -2.832555 0.069636 0.000000 0.000000 0.000000
71.372903 70.625795 228.696599 -0.430267 1.536947 -14.978308 0.011634 0.121298 14.991954 0.135794 0.026286 0.020169 3.780028 0.612668 -1.154852 0.000000 0.000000 0.000000 0.080941 1.831537 -0.668296 -0.138351 -5.814158 0.664584 -17.182236 10.951154 6.304711 14.542548 -13.384826 -3.665378 0.000000 0.000000 0.000000 0.000000 0.000000 0.000000 29.067047 -24.695746 0.925947 -42.660048 28.148990 18.011164 26.387812 32.501486 -40.624756 -18.004972 -61.369066 11.936413 0.000000 0.000000 0.000000 0.000000 0.000000 0.000000 0.741984 -2.810951 14.867503 1.548606 -0.764434 0.069641 26.058485 29.964536 -54.038581 0.000000 0.000000 0.000000 0.813075 -1.373436 14.993825 -0.000000 0.000000 0.000000 5.880840 -3.818565 0.975781 0.000000 0.000000 0.000000
71.231053 70.711833 228.645586 -0.482796 1.569316 -14.916375 0.037880 0.105858 14.930058 0.141377 0.006987 0.018956 3.628414 1.063320 -1.050504 0.000000 0.000000 0.000000 -0.089834 2.338213 -0.755759 0.065725 -6.323499 0.759301 -19.068038 10.842885 5.879975 15.478050 -13.987925 -3.107903 0.000000 0.000000 0.000000 0.000000 0.000000 0.000000 45.296467 -37.819746 6.984614 -68.152491 36.490393 36.062327 36.186621 35.806362 -51.811504 -17.972175 -70.297902 18.110793 0.000000 0.000000 0.000000 0.000000 0.000000 0.000000 0.180006 -2.790403 14.812719 2.726032 -1.063042 0.001195 27.183039 29.795421 -55.929109 0.000000 0.000000 0.000000 0.870703 -1.392053 14.933565 -0.000000 0.000000 0.000000 5.682771 -3.691580 0.927487 0.000000 0.000000 0.000000
71.087194 70.825580 228.580623 -0.523343 1.620967 -14.764655 0.054259 0.091021 14.778612 0.140596 -0.002122 0.017883 3.373426 1.412482 -0.906889 0.000000 0.000000 0.000000 -0.199575 2.907634 -0.859907 0.218345 -6.924888 0.871231 -21.126892 9.974284 4.315879 13.985244 -16.883848 -2.677791 0.000000 0.000000 0.000000 0.000000 0.000000 0.000000 63.141623 -47.115137 17.054807 -90.146408 38.840142 52.631347 46.227858 37.536405 -53.176019 -48.014569 -72.251645 -6.236049 0.000000 0.000000 0.000000 0.000000 0.000000 0.000000 0.035959 -2.777369 14.667647 3.099677 -1.103020 -0.024683 31.786094 29.688650 -62.244183 0.000000 0.000000 0.000000 0.919413 -1.433948 14.783565 -0.000000 0.000000 0.000000 6.172209 -4.022932 1.225296 0.000000 0.000000 0.000000
